<?xml version="1.0" standalone="no"?>
<!DOCTYPE svg PUBLIC "-//W3C//DTD SVG 20010904//EN"
 "http://www.w3.org/TR/2001/REC-SVG-20010904/DTD/svg10.dtd">
<svg version="1.0" xmlns="http://www.w3.org/2000/svg"
 width="360.000000pt" height="360.000000pt" viewBox="0 0 360.000000 360.000000"
 preserveAspectRatio="xMidYMid meet">
<metadata>
Created by potrace 1.11, written by Peter Selinger 2001-2013
</metadata>
<g transform="translate(0.000000,360.000000) scale(0.100000,-0.100000)"
fill="#000000" stroke="none">
<path d="M420 3147 c0 -1 24 -83 54 -181 l54 -179 283 -283 283 -283 -26 -28
c-14 -15 -34 -39 -44 -52 -11 -13 -23 -28 -29 -35 -12 -14 -55 -79 -83 -126
-11 -19 -30 -60 -41 -90 -12 -30 -25 -64 -30 -75 -5 -11 -15 -54 -21 -95 -7
-41 -14 -84 -16 -95 -8 -36 -7 -169 0 -239 10 -89 49 -224 88 -304 l32 -64
-252 -246 c-194 -190 -251 -252 -248 -267 3 -11 5 -23 5 -26 1 -3 12 -18 26
-33 53 -57 28 -77 670 564 l590 590 127 -127 127 -128 -37 -36 c-79 -77 -78
-69 -23 -123 l48 -47 87 85 c47 48 89 86 91 86 3 0 164 -159 359 -354 341
-342 354 -355 360 -400 9 -57 44 -86 106 -86 88 0 146 65 138 152 -4 42 -33
96 -45 84 -2 -2 -24 2 -49 10 -37 11 -71 40 -195 163 l-151 150 35 83 c60 141
79 231 79 388 1 134 -9 204 -48 318 -52 156 -138 290 -260 406 l-63 61 157
158 c86 88 148 156 137 153 -11 -3 -76 -16 -145 -29 l-125 -23 -55 -58 c-30
-32 -66 -70 -79 -86 l-24 -27 -74 34 c-218 101 -487 115 -718 38 l-70 -23
-315 313 -315 312 -130 37 c-71 20 -151 43 -177 51 -27 8 -48 13 -48 12z
m1160 -1412 c40 -41 51 -24 -131 -205 -323 -320 -479 -470 -487 -470 -10 0 9
94 35 175 70 218 243 407 467 507 34 15 66 28 72 28 5 0 25 -16 44 -35z m555
4 c67 -30 135 -72 135 -84 0 -5 -11 -20 -23 -32 l-24 -22 -79 80 c-43 43 -74
79 -68 79 7 0 33 -9 59 -21z m390 -354 c46 -80 88 -201 101 -285 l7 -45 -187
187 c-127 126 -185 192 -180 200 4 7 33 39 63 70 l56 58 47 -52 c26 -29 68
-88 93 -133z"/>
<path d="M2851 3143 c-22 -4 -73 -34 -113 -66 -29 -23 -61 -98 -66 -153 -4
-52 -4 -53 19 -49 13 3 44 8 69 11 25 3 52 7 60 9 19 3 118 17 150 20 95 11
180 29 180 39 -1 27 -42 100 -75 131 -57 53 -138 74 -224 58z"/>
<path d="M3000 2884 c-110 -22 -148 -29 -215 -39 -104 -17 -125 -27 -155 -70
-16 -23 -56 -70 -90 -104 -33 -34 -60 -63 -60 -65 0 -2 28 2 63 9 34 8 76 15
92 18 17 3 106 19 200 37 157 30 172 34 213 68 45 37 85 97 96 145 8 33 11 33
-144 1z"/>
</g>
</svg>
